<svg xmlns="http://www.w3.org/2000/svg" width="393" height="999" viewBox="0 0 393 999">
<title>PitLane V2 Exit Zoom</title>
<rect width="100%" height="100%" fill="#050816"/>
<path d="M 162.87 401.79 L 163.33 400.01 L 163.78 398.23 L 164.24 396.45 L 164.70 394.67 L 165.15 392.89 L 165.61 391.11 L 166.06 389.33 L 166.52 387.55 L 166.98 385.77 L 167.43 383.99 L 167.89 382.21 L 168.34 380.43 L 168.80 378.65 L 169.25 376.87 L 169.71 375.09 L 170.17 373.31 L 170.62 371.53 L 171.08 369.75 L 171.53 367.97 L 171.99 366.19 L 172.45 364.41 L 172.90 362.63 L 173.36 360.85 L 173.81 359.07 L 174.27 357.29 L 174.73 355.51 L 175.18 353.73 L 175.64 351.95 L 176.09 350.16 L 176.55 348.38 L 177.01 346.60 L 177.46 344.82 L 177.92 343.04 L 178.37 341.26 L 178.83 339.48 L 179.28 337.70 L 179.74 335.92 L 180.20 334.14 L 180.65 332.36 L 181.11 330.58 L 181.56 328.80 L 182.02 327.02 L 182.48 325.24 L 182.93 323.46 L 183.39 321.68 L 183.84 319.90 L 184.30 318.12 L 184.76 316.34 L 185.21 314.56 L 185.67 312.78 L 186.12 311.00 L 186.58 309.22 L 187.03 307.44 L 187.49 305.66 L 187.95 303.88 L 188.40 302.10 L 188.86 300.32 L 189.31 298.54 L 189.77 296.76 L 190.23 294.98 L 190.68 293.20 L 191.14 291.42 L 191.59 289.64 L 192.05 287.86 L 192.51 286.08 L 192.96 284.30 L 193.42 282.52 L 193.87 280.74 L 194.33 278.96 L 194.79 277.18 L 195.24 275.40 L 195.70 273.62 L 196.15 271.83 L 196.61 270.05 L 197.06 268.27 L 197.51 266.49 L 197.96 264.71 L 198.41 262.93 L 198.86 261.15 L 199.31 259.37 L 199.76 257.58 L 200.22 255.80 L 200.67 254.02 L 201.12 252.24 L 201.57 250.46 L 202.02 248.68 L 202.47 246.89 L 202.92 245.11 L 203.37 243.33 L 203.82 241.55 L 204.27 239.77 L 204.72 237.99 L 205.17 236.20 L 205.62 234.42 L 206.07 232.64 L 206.52 230.86 L 206.97 229.08 L 207.42 227.30 L 207.87 225.52 L 208.32 223.73 L 208.78 221.95 L 209.23 220.17 L 209.68 218.39 L 210.13 216.61 L 210.58 214.83 L 211.03 213.04 L 211.48 211.26 L 211.93 209.48 L 212.38 207.70 L 212.83 205.92 L 213.28 204.14 L 213.73 202.35 L 214.18 200.57 L 214.63 198.79 L 215.08 197.01 L 215.53 195.23 L 215.98 193.45 L 216.43 191.67 L 216.88 189.88 L 217.34 188.10 L 217.79 186.32 L 218.24 184.54 L 218.69 182.76 L 219.14 180.98 L 219.59 179.19 L 220.05 177.41 L 220.51 175.64 L 220.99 173.86 L 221.48 172.09 L 221.97 170.32 L 222.47 168.55 L 222.96 166.78 L 223.45 165.01 L 223.95 163.24 L 224.44 161.47 L 224.93 159.70 L 225.43 157.93 L 225.92 156.16 L 226.41 154.39 L 226.91 152.62 L 227.41 150.85 L 227.92 149.09 L 228.46 147.33 L 229.02 145.58 L 229.59 143.83 L 230.17 142.09 L 230.74 140.34 L 231.32 138.60 L 231.90 136.86 L 232.49 135.12 L 233.10 133.38 L 233.72 131.65 L 234.35 129.92 L 234.99 128.20 L 235.67 126.50 L 236.40 124.81 L 237.18 123.15 L 238.00 121.51 L 238.84 119.87 L 239.69 118.24 L 240.56 116.63 L 241.46 115.03 L 242.38 113.44 L 243.31 111.85 L 244.24 110.26 L 245.17 108.68 L 246.14 107.12 L 247.14 105.58 L 248.19 104.08 L 249.27 102.59 L 250.37 101.11 L 251.47 99.64 L 252.58 98.18 L 253.71 96.73 L 254.87 95.31 L 256.05 93.90 L 257.24 92.50 L 258.47 91.13 L 259.72 89.80 L 261.02 88.49 L 262.33 87.21 L 263.66 85.94 L 265.02 84.71 L 266.42 83.52 L 267.87 82.39 L 269.37 81.34 L 270.92 80.37 L 272.53 79.48 L 274.17 78.67 L 275.86 77.97 L 277.59 77.38 L 279.36 76.89 L 281.16 76.52 L 282.97 76.26 L 284.79 76.10 L 286.63 76.03 L 288.46 76.03 L 290.29 76.12 L 292.12 76.30 L 293.94 76.53 L 295.75 76.84 L 297.54 77.23 L 299.31 77.70 L 301.06 78.25 L 302.78 78.88 L 304.47 79.60 L 306.12 80.40 L 307.74 81.27 L 309.32 82.20 L 310.85 83.20 L 312.33 84.28 L 313.76 85.44 L 315.13 86.65 L 316.47 87.91 L 317.78 89.20 L 319.06 90.51 L 320.33 91.85 L 321.58 93.19 L 322.83 94.54 L 324.08 95.89 L 325.33 97.23 L 326.58 98.58 L 327.83 99.93 L 329.08 101.27 L 330.33 102.62 L 331.58 103.97 L 332.83 105.31 L 334.08 106.66 L 335.33 108.01 L 336.59 109.35 L 337.84 110.70 L 339.09 112.05 L 340.34 113.39 L 341.59 114.74 L 342.84 116.09 L 344.09 117.43 L 345.34 118.78 L 346.59 120.13 L 347.84 121.47 L 349.09 122.82 L 350.34 124.17 L 351.59 125.51 L 352.86 126.84 L 354.14 128.16 L 355.44 129.45 L 356.79 130.70 L 358.19 131.87 L 359.67 132.96 L 361.19 133.98 L 362.74 134.96 L 364.33 135.88 L 365.97 136.70 L 367.65 137.40 L 369.39 137.98 L 371.16 138.46 L 372.95 138.88 L 374.74 139.25 L 376.55 139.51 L 378.38 139.66 L 380.21 139.71 L 382.05 139.70 L 383.89 139.68 L 385.72 139.62 L 387.54 139.46 L 389.35 139.18 L 391.14 138.78 L 392.92 138.32 L 394.68 137.83 L 396.43 137.27 L 398.12 136.60 L 399.76 135.80 L 401.36 134.90 L 402.94 133.96 L 404.52 133.02 L 406.09 132.07 L 407.67 131.13 L 409.24 130.18 L 410.82 129.23 L 412.40 128.29 L 413.97 127.34 L 415.55 126.40 L 417.12 125.45 L 418.70 124.50 L 420.27 123.56 L 421.85 122.61 L 423.42 121.67 L 425.00 120.72 L 426.57 119.77 L 428.15 118.83 L 429.72 117.88 L 431.30 116.93 L 432.87 115.98 L 434.45 115.03 L 436.02 114.09 L 437.60 113.15 L 439.19 112.23 L 440.80 111.35 L 442.43 110.50 L 444.08 109.68 L 445.73 108.87 L 447.38 108.07 L 449.04 107.27 L 450.70 106.50 L 452.35 105.85 L 453.88 105.57 L 455.20 105.92 L 456.25 106.97 L 457.13 108.44 L 457.95 110.09 L 458.77 111.73 L 459.58 113.38 L 460.43 114.96 L 461.40 116.21 L 462.59 116.88 L 464.05 116.82 L 465.66 116.28 L 467.33 115.52 L 468.99 114.74 L 470.67 113.98 L 472.35 113.25 L 474.04 112.52 L 475.73 111.80 L 477.42 111.09 L 479.13 110.40 L 480.84 109.73 L 482.55 109.07 L 484.26 108.41 L 485.78 107.61 L 486.90 106.55 L 487.45 105.10 L 487.61 103.39 L 487.59 101.55 L 487.57 99.72 L 487.70 98.01 L 488.19 96.61 L 489.24 95.69 L 490.75 95.18 L 492.52 94.89 L 494.34 94.66 L 496.17 94.43 L 497.99 94.20 L 499.82 94.00 L 501.65 93.83 L 503.48 93.70 L 505.31 93.60 L 507.15 93.50 L 508.98 93.41 L 510.82 93.33 L 512.65 93.27 L 514.49 93.26 L 516.33 93.28 L 518.17 93.31 L 520.00 93.35 L 521.84 93.40 L 523.68 93.44 L 525.51 93.48 L 527.35 93.53 L 529.19 93.61 L 531.02 93.73 L 532.85 93.89 L 534.68 94.07 L 536.50 94.26 L 538.33 94.46 L 540.16 94.65 L 541.99 94.84 L 543.81 95.06 L 545.63 95.31 L 547.44 95.61 L 549.25 95.96 L 551.05 96.33 L 552.85 96.70 L 554.64 97.08 L 556.44 97.47 L 558.23 97.88 L 560.01 98.32 L 561.79 98.79 L 563.55 99.31 L 565.31 99.84 L 567.07 100.38 L 568.82 100.92 L 570.58 101.47 L 572.32 102.04 L 574.06 102.64 L 575.78 103.29 L 577.48 103.97 L 579.19 104.67 L 580.89 105.36 L 582.58 106.06 L 584.28 106.76 L 585.98 107.46 L 587.68 108.18 L 589.36 108.92 L 591.02 109.69 L 592.67 110.51 L 594.31 111.34 L 595.94 112.18 L 597.58 113.02 L 599.21 113.86 L 600.85 114.70 L 602.48 115.55 L 604.10 116.41 L 605.71 117.30 L 607.30 118.21 L 608.87 119.16 L 610.44 120.12 L 611.99 121.10 L 613.55 122.09 L 615.10 123.07 L 616.65 124.05 L 618.19 125.05 L 619.72 126.08 L 621.21 127.14 L 622.69 128.23 L 624.15 129.34 L 625.61 130.46 L 627.07 131.58 L 628.53 132.70 L 629.98 133.83 L 631.41 134.98 L 632.81 136.17 L 634.18 137.39 L 635.53 138.64 L 636.87 139.89 L 638.22 141.14 L 639.56 142.40 L 640.90 143.66 L 642.23 144.92 L 643.55 146.20 L 644.86 147.49 L 646.15 148.80 L 647.41 150.13 L 648.65 151.49 L 649.87 152.87 L 651.06 154.26 L 652.24 155.67 L 653.39 157.10 L 654.53 158.55 L 655.66 159.99 L 656.80 161.44 L 657.93 162.89 L 659.07 164.33 L 660.20 165.78 L 661.33 167.22 L 662.46 168.67 L 663.58 170.14 L 664.67 171.61 L 665.74 173.11 L 666.79 174.61 L 667.83 176.13 L 668.85 177.66 L 669.84 179.20 L 670.82 180.76 L 671.78 182.32 L 672.74 183.89 L 673.69 185.46 L 674.64 187.04 L 675.55 188.63 L 676.44 190.24 L 677.28 191.87 L 678.09 193.52 L 678.87 195.19 L 679.62 196.86 L 680.36 198.55 L 681.08 200.23 L 681.80 201.93 L 682.52 203.62 L 683.24 205.31 L 683.93 207.01 L 684.61 208.72 L 685.27 210.43 L 685.90 212.16 L 686.52 213.89 L 687.12 215.63 L 687.71 217.37 L 688.29 219.11 L 688.86 220.86 L 689.43 222.60 L 689.98 224.36 L 690.54 226.11 L 691.10 227.86 L 691.65 229.61 L 692.21 231.36 L 692.77 233.11 L 693.32 234.86 L 693.88 236.61 L 694.44 238.37 L 695.00 240.12 L 695.55 241.87 L 696.11 243.62 L 696.67 245.37 L 697.22 247.12 L 697.78 248.87 L 698.34 250.62 L 698.90 252.38 L 699.45 254.13 L 700.01 255.88 L 700.57 257.63 L 701.13 259.38 L 701.68 261.13 L 702.24 262.88 L 702.86 264.53 L 703.69 265.83 L 704.86 266.57 L 706.38 266.73 L 708.11 266.53 L 709.92 266.21 L 711.73 265.89 L 713.53 265.58 L 715.18 265.51 L 716.54 265.92 L 717.49 267.01 L 718.15 268.55 L 718.69 270.31 L 719.22 272.07 L 719.75 273.83 L 720.29 275.58 L 720.82 277.34 L 721.35 279.10 L 721.89 280.86 L 722.42 282.62 L 722.95 284.38 L 723.49 286.14 L 724.02 287.89 L 724.55 289.65 L 725.09 291.41 L 725.62 293.17 L 726.15 294.93 L 726.69 296.69 L 727.22 298.45 L 727.75 300.20 L 728.29 301.96 L 728.82 303.72 L 729.35 305.48 L 729.89 307.24 L 730.42 309.00 L 730.95 310.76 L 731.49 312.51 L 731.81 314.17 L 731.67 315.61 L 730.82 316.71 L 729.44 317.56 L 727.78 318.26 L 726.07 318.96 L 724.37 319.65 L 722.83 320.42 L 721.71 321.38 L 721.25 322.66 L 721.37 324.22 L 721.82 325.94 L 722.36 327.70 L 722.90 329.46 L 723.43 331.21 L 723.97 332.97 L 724.51 334.73 L 725.05 336.49 L 725.58 338.24 L 726.12 340.00 L 726.66 341.76 L 727.20 343.51 L 727.73 345.27 L 728.27 347.03 L 728.81 348.79 L 729.34 350.55 L 729.86 352.31 L 730.38 354.07 L 730.90 355.83 L 731.42 357.60 L 731.94 359.36 L 732.45 361.12 L 732.97 362.89 L 733.49 364.65 L 734.01 366.41 L 734.52 368.18 L 735.04 369.94 L 735.56 371.70 L 736.08 373.47 L 736.59 375.23 L 737.11 376.99 L 737.63 378.76 L 738.15 380.52 L 738.66 382.28 L 739.18 384.05 L 739.70 385.81 L 740.22 387.57 L 740.73 389.34 L 741.25 391.10 L 741.75 392.87 L 742.26 394.63 L 742.77 396.40 L 743.27 398.17 L 743.78 399.93 L 744.28 401.70 L 744.79 403.47 L 745.29 405.23 L 745.80 407.00 L 746.30 408.77 L 746.81 410.54 L 747.31 412.30 L 747.80 414.07 L 748.28 415.85 L 748.77 417.62 L 749.24 419.39 L 749.72 421.17 L 750.20 422.94 L 750.68 424.72 L 751.16 426.49 L 751.64 428.27 L 752.11 430.04 L 752.59 431.81 L 753.07 433.59 L 753.55 435.36 L 754.03 437.14 L 754.51 438.91 L 754.98 440.69 L 755.46 442.46 L 755.94 444.23 L 756.42 446.01 L 756.90 447.78 L 757.38 449.56 L 757.85 451.33 L 758.33 453.11 L 758.81 454.88 L 759.29 456.65 L 759.77 458.43 L 760.25 460.20 L 760.72 461.98 L 761.20 463.75 L 761.68 465.53 L 762.16 467.30 L 762.64 469.07 L 763.12 470.85 L 763.60 472.62 L 764.07 474.40 L 764.55 476.17 L 765.03 477.95 L 765.51 479.72 L 765.99 481.50 L 766.47 483.27 L 766.94 485.04 L 767.42 486.82 L 767.90 488.59 L 768.38 490.37 L 768.86 492.14 L 769.34 493.92 L 769.81 495.69 L 770.29 497.46 L 770.77 499.24 L 771.25 501.01 L 771.73 502.79 L 772.06 504.52 L 772.06 506.17 L 771.65 507.70 L 771.12 509.20 L 770.87 510.78 L 771.02 512.46 L 771.44 514.22 L 771.92 515.99 L 772.40 517.77 L 772.88 519.54 L 773.37 521.31 L 773.85 523.09 L 774.33 524.86 L 774.81 526.63 L 775.29 528.41 L 775.78 530.18 L 776.26 531.95 L 776.74 533.73 L 777.22 535.50 L 777.70 537.27 L 778.18 539.05 L 778.67 540.82 L 779.15 542.59 L 779.63 544.37 L 780.11 546.14 L 780.59 547.91 L 781.07 549.69 L 781.56 551.46 L 782.04 553.24 L 782.52 555.01 L 783.00 556.78 L 783.48 558.56 L 783.97 560.33 L 784.45 562.10 L 784.93 563.88 L 785.41 565.65 L 785.89 567.42 L 786.37 569.20 L 786.86 570.97 L 787.34 572.74 L 787.82 574.52 L 788.30 576.29 L 788.78 578.06 L 789.26 579.84 L 789.75 581.61 L 790.23 583.38 L 790.71 585.16 L 791.19 586.93 L 791.67 588.70 L 792.16 590.48 L 792.64 592.25 L 793.12 594.02 L 793.60 595.80 L 794.09 597.57 L 794.57 599.34 L 795.06 601.11 L 795.55 602.89 L 796.03 604.66 L 796.52 606.43 L 797.01 608.20 L 797.49 609.97 L 797.98 611.75 L 798.47 613.52 L 798.95 615.29 L 799.44 617.06 L 799.93 618.83 L 800.41 620.61 L 800.90 622.38 L 801.39 624.15 L 801.87 625.92 L 802.36 627.69 L 802.85 629.47 L 803.33 631.24 L 803.82 633.01 L 804.31 634.78 L 804.79 636.55 L 805.28 638.33 L 805.77 640.10 L 806.25 641.87 L 806.74 643.64 L 807.23 645.42 L 807.71 647.19 L 808.20 648.96 L 808.69 650.73 L 809.17 652.50 L 809.66 654.28 L 810.15 656.05 L 810.63 657.82 L 811.12 659.59 L 811.61 661.36 L 812.09 663.14 L 812.58 664.91 L 813.07 666.68 L 813.55 668.45 L 814.04 670.22 L 814.53 672.00 L 815.01 673.77 L 815.50 675.54 L 815.99 677.31 L 816.47 679.08 L 816.96 680.86 L 817.45 682.63 L 817.93 684.40 L 818.42 686.17 L 818.91 687.94 L 819.39 689.72 L 819.88 691.49 L 820.37 693.26 L 820.85 695.03 L 821.34 696.80 L 821.83 698.58 L 822.31 700.35 L 822.80 702.12 L 823.29 703.89 L 823.77 705.67 L 824.26 707.44 L 824.75 709.21 L 825.23 710.98 L 825.72 712.75 L 826.21 714.52 L 826.70 716.30 L 827.19 718.07 L 827.69 719.84 L 828.18 721.61 L 828.68 723.38 L 829.17 725.15 L 829.67 726.91 L 830.16 728.68 L 830.66 730.45 L 831.15 732.22 L 831.65 733.99 L 832.15 735.76 L 832.64 737.53 L 833.14 739.30 L 833.63 741.07 L 834.13 742.84 L 834.62 744.61 L 835.12 746.38 L 835.61 748.15 L 836.11 749.92 L 836.61 751.69 L 837.10 753.46 L 837.60 755.23 L 838.09 757.00 L 838.59 758.77 L 839.08 760.54 L 839.58 762.31 L 840.07 764.08 L 840.57 765.85 L 841.07 767.62 L 841.56 769.39 L 842.06 771.15 L 842.55 772.92 L 843.05 774.69 L 843.54 776.46 L 844.04 778.23 L 844.53 780.00 L 845.03 781.77 L 845.52 783.54 L 846.02 785.31 L 846.52 787.08 L 847.01 788.85 L 847.51 790.62 L 848.00 792.39 L 848.50 794.16 L 848.99 795.93 L 849.49 797.70 L 849.98 799.47 L 850.48 801.24 L 850.98 803.01 L 851.47 804.78 L 851.97 806.55 L 852.46 808.32 L 852.96 810.09 L 853.45 811.86 L 853.95 813.63 L 854.44 815.39 L 854.94 817.16 L 855.44 818.93 L 855.93 820.70 L 856.43 822.47 L 856.92 824.24 L 857.42 826.01 L 857.91 827.78 L 858.41 829.55 L 858.90 831.32 L 859.40 833.09 L 859.90 834.86 L 860.39 836.63 L 860.89 838.40 L 861.38 840.17 L 861.88 841.94 L 862.37 843.71 L 862.87 845.48 L 863.36 847.25 L 863.86 849.02 L 864.36 850.79 L 864.85 852.56 L 865.35 854.33 L 865.84 856.10 L 866.34 857.87 L 866.83 859.64 L 867.33 861.40 L 867.82 863.17 L 868.32 864.94 L 868.82 866.71 L 869.31 868.48 L 869.81 870.25 L 870.30 872.02 L 870.80 873.79 L 871.29 875.56 L 871.79 877.33 L 872.28 879.10 L 872.78 880.87 L 873.28 882.64 L 873.77 884.41 L 874.27 886.18 L 874.76 887.95 L 875.26 889.72 L 875.75 891.49 L 876.25 893.26 L 876.74 895.03 L 877.24 896.80 L 877.74 898.57 L 878.23 900.34 L 878.73 902.11 L 879.22 903.87 L 879.72 905.64 L 880.21 907.41 L 880.71 909.18 L 881.21 910.95 L 881.70 912.72 L 882.20 914.49 L 882.69 916.26 L 883.19 918.03 L 883.68 919.80 L 884.18 921.57 L 884.68 923.34 L 885.17 925.11 L 885.67 926.88 L 886.16 928.65 L 886.66 930.42 L 887.16 932.19 L 887.65 933.96 L 888.15 935.73 L 888.64 937.50 L 889.14 939.27 L 889.61 941.04 L 890.06 942.82 L 890.46 944.61 L 890.82 946.42 L 891.14 948.22 L 891.44 950.04 L 891.74 951.85 L 892.02 953.67 L 892.24 955.49 L 892.36 957.31 L 892.38 959.15 L 892.34 960.98 L 892.27 962.82 L 892.18 964.66 L 892.04 966.49 L 891.84 968.31 L 891.57 970.13 L 891.23 971.93 L 890.84 973.72 L 890.41 975.51 L 889.96 977.29 L 889.48 979.06 L 888.93 980.81 L 888.28 982.52 L 887.53 984.20 L 886.72 985.85 L 885.88 987.48 L 885.02 989.10 L 884.13 990.71 L 883.16 992.26 L 882.10 993.76 L 880.97 995.20 L 879.79 996.61 L 878.58 997.99 L 877.32 999.32 L 876.02 1000.62 L 874.68 1001.88 L 873.31 1003.09 L 871.88 1004.25 L 870.42 1005.36 L 868.94 1006.44 L 867.42 1007.48 L 865.88 1008.48 L 864.30 1009.42 L 862.70 1010.30 L 861.06 1011.13 L 859.39 1011.90 L 857.69 1012.60 L 855.97 1013.21 L 854.21 1013.74 L 852.43 1014.20 L 850.64 1014.61 L 848.84 1014.98 L 847.04 1015.34 L 845.24 1015.70 L 843.44 1016.06 L 841.64 1016.42 L 839.83 1016.78 L 838.03 1017.14 L 836.23 1017.50 L 834.43 1017.87 L 832.63 1018.23 L 830.82 1018.59 L 829.02 1018.95 L 827.22 1019.31 L 825.42 1019.67 L 823.62 1020.03 L 821.81 1020.39 L 820.01 1020.75 L 818.21 1021.11 L 816.41 1021.47 L 814.61 1021.83 L 812.80 1022.19 L 811.00 1022.56 L 809.20 1022.92 L 807.40 1023.28 L 805.60 1023.64 L 803.79 1024.00 L 801.99 1024.36 L 800.19 1024.72 L 798.39 1025.08 L 796.59 1025.44 L 794.79 1025.80 L 792.98 1026.16 L 791.18 1026.52 L 789.38 1026.88 L 787.58 1027.24 L 785.78 1027.60 L 783.97 1027.96 L 782.17 1028.33 L 780.37 1028.69 L 778.57 1029.05 L 776.77 1029.41 L 774.96 1029.77 L 773.16 1030.13 L 771.36 1030.49 L 769.56 1030.85 L 767.76 1031.21 L 765.95 1031.57 L 764.15 1031.93 L 762.35 1032.29 L 760.55 1032.65 L 758.74 1032.99 L 756.93 1033.32 L 755.12 1033.64 L 753.31 1033.95 L 751.50 1034.25 L 749.69 1034.56 L 747.88 1034.87 L 746.07 1035.17 L 744.25 1035.48 L 742.44 1035.76 L 740.62 1036.00 L 738.79 1036.19 L 736.96 1036.33 L 735.13 1036.44 L 733.29 1036.55 L 731.46 1036.65 L 729.62 1036.76 L 727.79 1036.86 L 725.95 1036.94 L 724.12 1037.00 L 722.28 1037.03 L 720.44 1037.03 L 718.60 1037.00 L 716.77 1036.93 L 714.93 1036.84 L 713.10 1036.74 L 711.27 1036.61 L 709.43 1036.47 L 707.60 1036.31 L 705.77 1036.16 L 703.94 1035.99 L 702.11 1035.81 L 700.29 1035.59 L 698.48 1035.31 L 696.67 1034.98 L 694.87 1034.63 L 693.06 1034.26 L 691.27 1033.89 L 689.47 1033.50 L 687.68 1033.09 L 685.89 1032.66 L 684.11 1032.22 L 682.33 1031.77 L 680.56 1031.29 L 678.80 1030.76 L 677.06 1030.16 L 675.34 1029.53 L 673.62 1028.88 L 671.90 1028.23 L 670.19 1027.56 L 668.49 1026.87 L 666.79 1026.16 L 665.10 1025.43 L 663.42 1024.70 L 661.74 1023.96 L 660.06 1023.21 L 658.41 1022.41 L 656.77 1021.57 L 655.16 1020.70 L 653.56 1019.79 L 651.97 1018.87 L 650.39 1017.94 L 648.80 1017.01 L 647.22 1016.07 L 645.65 1015.12 L 644.09 1014.15 L 642.55 1013.15 L 641.02 1012.12 L 639.52 1011.07 L 638.03 1009.99 L 636.56 1008.89 L 635.10 1007.78 L 633.65 1006.64 L 632.22 1005.49 L 630.79 1004.34 L 629.37 1003.17 L 627.94 1002.01 L 626.52 1000.85 L 625.11 999.67 L 623.72 998.47 L 622.36 997.23 L 621.03 995.97 L 619.72 994.69 L 618.41 993.39 L 617.11 992.10 L 615.81 990.79 L 614.53 989.48 L 613.27 988.14 L 612.02 986.80 L 610.77 985.45 L 609.52 984.10 L 608.28 982.75 L 607.04 981.38 L 605.83 980.00 L 604.66 978.59 L 603.51 977.16 L 602.37 975.72 L 601.23 974.28 L 600.09 972.83 L 598.95 971.39 L 597.82 969.95 L 596.68 968.50 L 595.54 967.06 L 594.40 965.62 L 593.27 964.17 L 592.13 962.73 L 590.99 961.29 L 589.85 959.84 L 588.72 958.40 L 587.59 956.95 L 586.46 955.50 L 585.36 954.03 L 584.26 952.55 L 583.17 951.08 L 582.08 949.60 L 580.99 948.12 L 579.90 946.64 L 578.81 945.16 L 577.71 943.68 L 576.62 942.20 L 575.53 940.72 L 574.44 939.24 L 573.35 937.77 L 572.26 936.29 L 571.17 934.81 L 570.08 933.33 L 568.99 931.85 L 567.90 930.37 L 566.81 928.89 L 565.72 927.41 L 564.62 925.93 L 563.53 924.46 L 562.44 922.98 L 561.35 921.50 L 560.26 920.02 L 559.17 918.54 L 558.08 917.06 L 556.99 915.58 L 555.90 914.10 L 554.81 912.62 L 553.72 911.15 L 552.63 909.67 L 551.53 908.19 L 550.44 906.71 L 549.35 905.23 L 548.26 903.75 L 547.17 902.27 L 546.08 900.79 L 544.99 899.31 L 543.90 897.83 L 542.82 896.35 L 541.74 894.86 L 540.67 893.37 L 539.60 891.87 L 538.52 890.38 L 537.45 888.89 L 536.38 887.40 L 535.31 885.91 L 534.23 884.41 L 533.16 882.92 L 532.09 881.43 L 531.02 879.94 L 529.94 878.45 L 528.87 876.95 L 527.80 875.46 L 526.73 873.97 L 525.65 872.48 L 524.58 870.98 L 523.51 869.49 L 522.44 868.00 L 521.36 866.51 L 520.29 865.02 L 519.22 863.52 L 518.15 862.03 L 517.07 860.54 L 516.00 859.05 L 514.93 857.55 L 513.85 856.06 L 512.78 854.57 L 511.71 853.08 L 510.64 851.59 L 509.56 850.09 L 508.49 848.60 L 507.42 847.11 L 506.35 845.62 L 505.27 844.13 L 504.20 842.63 L 503.13 841.14 L 502.06 839.65 L 500.98 838.16 L 499.91 836.66 L 498.84 835.17 L 497.77 833.68 L 496.69 832.19 L 495.62 830.70 L 494.55 829.20 L 493.48 827.71 L 492.40 826.22 L 491.33 824.73 L 490.26 823.23 L 489.18 821.74 L 488.11 820.25 L 487.04 818.76 L 485.97 817.27 L 484.89 815.77 L 483.82 814.28 L 482.75 812.79 L 481.68 811.30 L 480.60 809.81 L 479.52 808.32 L 478.44 806.83 L 477.36 805.35 L 476.28 803.86 L 475.20 802.38 L 474.11 800.89 L 473.03 799.41 L 471.95 797.92 L 470.87 796.43 L 469.79 794.95 L 468.71 793.46 L 467.63 791.98 L 466.54 790.49 L 465.46 789.01 L 464.38 787.52 L 463.30 786.03 L 462.22 784.55 L 461.14 783.06 L 460.05 781.58 L 458.97 780.09 L 457.89 778.61 L 456.81 777.12 L 455.72 775.64 L 454.63 774.16 L 453.54 772.68 L 452.45 771.20 L 451.36 769.72 L 450.27 768.24 L 449.18 766.76 L 448.09 765.28 L 447.00 763.80 L 445.91 762.32 L 444.82 760.84 L 443.73 759.36 L 442.64 757.88 L 441.55 756.40 L 440.47 754.92 L 439.38 753.44 L 438.29 751.96 L 437.20 750.48 L 436.11 749.00 L 435.02 747.53 L 433.93 746.05 L 432.84 744.57 L 431.75 743.09 L 430.66 741.61 L 429.57 740.13 L 428.48 738.65 L 427.39 737.17 L 426.30 735.69 L 425.21 734.21 L 424.12 732.73 L 423.03 731.25 L 421.94 729.77 L 420.85 728.29 L 419.76 726.81 L 418.67 725.33 L 417.58 723.85 L 416.49 722.37 L 415.40 720.89 L 414.31 719.41 L 413.22 717.93 L 412.13 716.45 L 411.04 714.97 L 409.95 713.49 L 408.86 712.01 L 407.77 710.53 L 406.68 709.06 L 405.59 707.58 L 404.50 706.10 L 403.41 704.62 L 402.32 703.14 L 401.23 701.66 L 400.14 700.18 L 399.05 698.70 L 397.96 697.22 L 396.87 695.74 L 395.78 694.26 L 394.69 692.78 L 393.60 691.30 L 392.51 689.82 L 391.42 688.34 L 390.33 686.86 L 389.24 685.38 L 388.15 683.90 L 387.06 682.42 L 385.97 680.94 L 384.88 679.46 L 383.79 677.98 L 382.71 676.50 L 381.62 675.02 L 380.52 673.54 L 379.43 672.07 L 378.33 670.60 L 377.22 669.13 L 376.11 667.66 L 375.00 666.20 L 373.89 664.73 L 372.77 663.28 L 371.64 661.84 L 370.47 660.41 L 369.29 659.00 L 368.11 657.60 L 366.91 656.20 L 365.72 654.81 L 364.52 653.42 L 363.29 652.05 L 362.05 650.70 L 360.77 649.38 L 359.47 648.08 L 358.14 646.81 L 356.78 645.58 L 355.39 644.38 L 353.97 643.20 L 352.55 642.04 L 351.11 640.90 L 349.66 639.77 L 348.18 638.68 L 346.68 637.63 L 345.15 636.62 L 343.58 635.66 L 341.99 634.75 L 340.37 633.87 L 338.75 633.02 L 337.11 632.19 L 335.44 631.42 L 333.75 630.72 L 332.03 630.08 L 330.29 629.48 L 328.55 628.91 L 326.79 628.36 L 325.03 627.84 L 323.26 627.35 L 321.48 626.90 L 319.69 626.50 L 317.88 626.16 L 316.07 625.86 L 314.26 625.57 L 312.44 625.29 L 310.62 625.01 L 308.81 624.75 L 306.98 624.52 L 305.16 624.32 L 303.33 624.18 L 301.49 624.06 L 299.66 623.97 L 297.82 623.89 L 295.98 623.84 L 294.15 623.80 L 292.31 623.78 L 290.47 623.76 L 288.63 623.76 L 286.80 623.80 L 284.96 623.88 L 283.13 624.01 L 281.30 624.16 L 279.47 624.33 L 277.64 624.50 L 275.81 624.67 L 273.98 624.86 L 272.16 625.07 L 270.34 625.31 L 268.52 625.57 L 266.70 625.85 L 264.89 626.17 L 263.09 626.51 L 261.28 626.86 L 259.48 627.22 L 257.68 627.58 L 255.88 627.95 L 254.09 628.36 L 252.31 628.81 L 250.53 629.28 L 248.76 629.77 L 246.99 630.28 L 245.24 630.81 L 243.48 631.36 L 241.74 631.94 L 240.00 632.53 L 238.27 633.16 L 236.56 633.82 L 234.86 634.51 L 233.16 635.22 L 231.47 635.93 L 229.78 636.65 L 228.09 637.38 L 226.42 638.14 L 224.76 638.92 L 223.10 639.72 L 221.45 640.52 L 219.80 641.33 L 218.14 642.13 L 216.49 642.93 L 214.84 643.74 L 213.19 644.55 L 211.55 645.38 L 209.95 646.27 L 208.37 647.21 L 206.82 648.20 L 205.29 649.21 L 203.77 650.24 L 202.26 651.29 L 200.77 652.37 L 199.31 653.48 L 197.87 654.62 L 196.48 655.82 L 195.15 657.07 L 193.85 658.37 L 192.57 659.69 L 191.32 661.03 L 190.09 662.40 L 188.89 663.79 L 187.70 665.20 L 186.55 666.62 L 185.44 668.09 L 184.38 669.59 L 183.36 671.11 L 182.36 672.65 L 181.40 674.22 L 180.48 675.81 L 179.60 677.42 L 178.75 679.05 L 177.93 680.69 L 177.14 682.35 L 176.43 684.04 L 175.79 685.76 L 175.18 687.49 L 174.59 689.23 L 174.00 690.97 L 173.41 692.71 L 172.83 694.46 L 172.30 696.21 L 171.83 697.99 L 171.41 699.78 L 171.02 701.57 L 170.64 703.37 L 170.25 705.17 L 169.87 706.96 L 169.49 708.76 L 169.11 710.56 L 168.72 712.36 L 168.34 714.15 L 167.96 715.95 L 167.58 717.75 L 167.19 719.55 L 166.81 721.34 L 166.43 723.14 L 166.04 724.94 L 165.66 726.73 L 165.28 728.53 L 164.90 730.33 L 164.51 732.13 L 164.14 733.93 L 163.77 735.73 L 163.42 737.53 L 163.07 739.33 L 162.74 741.14 L 162.40 742.95 L 162.07 744.76 L 161.75 746.57 L 161.43 748.38 L 161.12 750.19 L 160.80 752.00 L 160.49 753.81 L 160.17 755.62 L 159.86 757.43 L 159.54 759.24 L 159.22 761.05 L 158.91 762.86 L 158.59 764.67 L 158.28 766.48 L 157.96 768.29 L 157.65 770.10 L 157.33 771.91 L 157.01 773.72 L 156.70 775.53 L 156.38 777.34 L 156.07 779.15 L 155.75 780.96 L 155.44 782.77 L 155.14 784.59 L 154.85 786.40 L 154.57 788.22 L 154.30 790.03 L 154.04 791.85 L 153.78 793.67 L 153.53 795.49 L 153.28 797.31 L 153.04 799.14 L 152.79 800.96 L 152.55 802.78 L 152.30 804.60 L 152.06 806.42 L 151.81 808.24 L 151.57 810.06 L 151.32 811.88 L 151.09 813.71 L 150.87 815.53 L 150.66 817.36 L 150.48 819.19 L 150.30 821.01 L 150.12 822.84 L 149.96 824.67 L 149.82 826.51 L 149.70 828.34 L 149.60 830.17 L 149.50 832.01 L 149.41 833.84 L 149.34 835.68 L 149.31 837.52 L 149.33 839.35 L 149.39 841.19 L 149.46 843.03 L 149.54 844.86 L 149.66 846.69 L 149.83 848.52 L 150.06 850.34 L 150.34 852.16 L 150.65 853.97 L 151.03 855.76 L 151.50 857.53 L 152.08 859.27 L 152.75 860.98 L 153.53 862.64 L 154.40 864.25 L 155.36 865.81 L 156.40 867.31 L 157.55 868.74 L 158.79 870.08 L 160.14 871.32 L 161.57 872.45 L 163.08 873.50 L 164.63 874.47 L 166.23 875.38 L 167.86 876.22 L 169.53 876.97 L 171.24 877.62 L 172.99 878.17 L 174.76 878.64 L 176.56 879.03 L 178.36 879.33 L 180.19 879.53 L 182.02 879.65 L 183.85 879.69 L 185.69 879.66 L 187.52 879.56 L 189.34 879.37 L 191.16 879.10 L 192.96 878.74 L 194.73 878.29 L 196.47 877.73 L 198.17 877.06 L 199.86 876.33 L 201.52 875.55 L 203.16 874.73 L 204.77 873.85 L 206.35 872.91 L 207.90 871.93 L 209.43 870.91 L 210.95 869.88 L 212.47 868.84 L 213.98 867.80 L 215.50 866.76 L 217.02 865.73 L 218.53 864.69 L 220.05 863.64 L 221.55 862.58 L 223.04 861.51 L 224.52 860.43 L 226.01 859.34 L 227.49 858.26 L 228.98 857.18 L 230.46 856.09 L 231.95 855.01 L 233.43 853.93 L 234.91 852.84 L 236.40 851.76 L 237.89 850.69 L 239.40 849.64 L 240.93 848.63 L 242.50 847.67 L 244.09 846.75 L 245.70 845.87 L 247.33 845.02 L 248.97 844.20 L 250.63 843.41 L 252.30 842.65 L 254.00 841.94 L 255.72 841.31 L 257.46 840.75 L 259.23 840.24 L 261.01 839.80 L 262.80 839.42 L 264.61 839.12 L 266.44 838.87 L 268.26 838.69 L 270.09 838.57 L 271.92 838.55 L 273.76 838.60 L 275.59 838.71 L 277.42 838.88 L 279.23 839.13 L 281.04 839.45 L 282.84 839.81 L 284.64 840.20 L 286.43 840.62 L 288.19 841.11 L 289.94 841.67 L 291.67 842.30 L 293.37 842.98 L 295.05 843.72 L 296.70 844.52 L 298.32 845.39 L 299.91 846.31 L 301.45 847.30 L 302.96 848.35 L 304.42 849.45 L 305.83 850.63 L 307.19 851.86 L 308.50 853.15 L 309.79 854.46 L 311.04 855.80 L 312.23 857.19 L 313.38 858.63 L 314.48 860.10 L 315.56 861.59 L 316.61 863.09 L 317.62 864.63 L 318.58 866.19 L 319.49 867.79 L 320.34 869.41 L 321.13 871.07 L 321.88 872.75 L 322.57 874.45 L 323.19 876.17 L 323.72 877.93 L 324.19 879.70 L 324.61 881.49 L 324.97 883.29 L 325.24 885.10 L 325.43 886.92 L 325.57 888.75 L 325.67 890.59 L 325.75 892.42 L 325.75 894.26 L 325.67 896.09 L 325.51 897.92 L 325.30 899.74 L 325.07 901.56 L 324.79 903.38 L 324.44 905.18 L 323.99 906.95 L 323.48 908.72 L 322.93 910.47 L 322.33 912.20 L 321.67 913.91 L 320.91 915.58 L 320.09 917.22 L 319.23 918.85 L 318.35 920.46 L 317.43 922.05 L 316.44 923.59 L 315.40 925.10 L 314.30 926.57 L 313.17 928.03 L 312.02 929.46 L 310.84 930.87 L 309.64 932.25 L 308.41 933.62 L 307.15 934.96 L 305.89 936.29 L 304.61 937.62 L 303.34 938.94 L 302.06 940.26 L 300.78 941.58 L 299.50 942.90 L 298.20 944.20 L 296.90 945.49 L 295.58 946.78 L 294.27 948.06 L 292.95 949.34 L 291.64 950.63 L 290.33 951.91 L 289.01 953.20 L 287.70 954.48 L 286.38 955.77 L 285.07 957.05 L 283.75 958.33 L 282.44 959.62 L 281.12 960.90 L 279.81 962.19 L 278.50 963.47 L 277.18 964.75 L 275.87 966.04 L 274.55 967.32 L 273.24 968.61 L 271.92 969.89 L 270.61 971.18 L 269.29 972.46 L 267.98 973.74 L 266.66 975.03 L 265.35 976.32 L 264.04 977.61 L 262.74 978.90 L 261.44 980.20 L 260.14 981.50 L 258.84 982.80 L 257.54 984.10 L 256.25 985.40 L 254.96 986.71 L 253.68 988.03 L 252.41 989.36 L 251.14 990.68 L 249.87 992.01 L 248.60 993.35 L 247.35 994.69 L 246.11 996.05 L 244.89 997.42 L 243.66 998.79 L 242.44 1000.16 L 241.22 1001.54 L 240.01 1002.92 L 238.81 1004.31 L 237.65 1005.73 L 236.52 1007.18 L 235.40 1008.64 L 234.30 1010.11 L 233.20 1011.58 L 232.09 1013.05 L 231.00 1014.53 L 229.94 1016.03 L 228.94 1017.56 L 227.98 1019.13 L 227.04 1020.71 L 226.11 1022.29 L 225.18 1023.87 L 224.24 1025.46 L 223.31 1027.04 L 222.38 1028.63 L 221.45 1030.21 L 220.53 1031.80 L 219.64 1033.41 L 218.77 1035.03 L 217.94 1036.67 L 217.14 1038.32 L 216.37 1039.99 L 215.64 1041.67 L 214.93 1043.37 L 214.25 1045.08 L 213.60 1046.79 L 212.97 1048.52 L 212.34 1050.25 L 211.73 1051.98 L 211.14 1053.72 L 210.57 1055.47 L 210.03 1057.22 L 209.50 1058.98 L 208.99 1060.75 L 208.49 1062.52 L 208.00 1064.28 L 207.51 1066.06 L 207.04 1067.83 L 206.58 1069.61 L 206.13 1071.39 L 205.69 1073.18 L 205.25 1074.96 L 204.80 1076.75 L 204.36 1078.53 L 203.92 1080.31 L 203.48 1082.10 L 203.04 1083.88 L 202.59 1085.66 L 202.15 1087.45 L 201.71 1089.23 L 201.27 1091.01 L 200.83 1092.80 L 200.38 1094.58 L 199.95 1096.37 L 199.52 1098.15 L 199.10 1099.94 L 198.69 1101.73 L 198.28 1103.53 L 197.88 1105.32 L 197.47 1107.11 L 197.07 1108.90 L 196.66 1110.70 L 196.26 1112.49 L 195.85 1114.28 L 195.45 1116.07 L 195.05 1117.87 L 194.67 1119.66 L 194.32 1121.47 L 194.03 1123.28 L 193.78 1125.10 L 193.58 1126.93 L 193.44 1128.76 L 193.35 1130.59 L 193.34 1132.43 L 193.42 1134.26 L 193.56 1136.09 L 193.75 1137.91 L 193.99 1139.73 L 194.31 1141.54 L 194.76 1143.31 L 195.34 1145.04 L 196.04 1146.73 L 196.84 1148.38 L 197.75 1149.97 L 198.77 1151.48 L 199.90 1152.93 L 201.11 1154.31 L 202.39 1155.61 L 203.76 1156.82 L 205.22 1157.94 L 206.72 1158.98 L 208.27 1159.97 L 209.85 1160.89 L 211.49 1161.73 L 213.16 1162.47 L 214.88 1163.10 L 216.63 1163.63 L 218.41 1164.09 L 220.20 1164.48 L 222.01 1164.76 L 223.83 1164.89 L 225.65 1164.84 L 227.48 1164.66 L 229.29 1164.38 L 231.08 1164.02 L 232.85 1163.53 L 234.56 1162.90 L 236.20 1162.12 L 237.79 1161.21 L 239.33 1160.20 L 240.83 1159.15 L 242.30 1158.05 L 243.72 1156.89 L 245.10 1155.68 L 246.43 1154.41 L 247.73 1153.12 L 249.01 1151.81 L 250.28 1150.48 L 251.53 1149.13 L 252.77 1147.77 L 254.01 1146.41 L 255.24 1145.05 L 256.48 1143.69 L 257.71 1142.33 L 258.95 1140.97 L 260.18 1139.61 L 261.42 1138.25 L 262.65 1136.89 L 263.89 1135.52 L 265.12 1134.16 L 266.36 1132.80 L 267.59 1131.44 L 268.83 1130.08 L 270.06 1128.72 L 271.30 1127.36 L 272.53 1126.00 L 273.77 1124.64 L 275.00 1123.28 L 276.23 1121.91 L 277.47 1120.55 L 278.70 1119.19 L 279.94 1117.83 L 281.17 1116.47 L 282.41 1115.11 L 283.64 1113.75 L 284.88 1112.39 L 286.11 1111.03 L 287.35 1109.67 L 288.58 1108.31 L 289.82 1106.94 L 291.05 1105.58 L 292.29 1104.22 L 293.52 1102.86 L 294.76 1101.50 L 295.99 1100.14 L 297.23 1098.78 L 298.46 1097.42 L 299.70 1096.06 L 300.93 1094.70 L 302.17 1093.34 L 303.40 1091.98 L 304.64 1090.62 L 305.87 1089.25 L 307.11 1087.89 L 308.34 1086.53 L 309.58 1085.17 L 310.81 1083.81 L 312.05 1082.45 L 313.28 1081.09 L 314.52 1079.73 L 315.76 1078.37 L 317.00 1077.02 L 318.25 1075.67 L 319.51 1074.33 L 320.77 1072.99 L 322.03 1071.66 L 323.29 1070.32 L 324.56 1068.99 L 325.82 1067.65 L 327.09 1066.32 L 328.37 1065.00 L 329.67 1063.72 L 331.02 1062.47 L 332.39 1061.25 L 333.78 1060.04 L 335.16 1058.83 L 336.55 1057.63 L 337.94 1056.42 L 339.33 1055.22 L 340.73 1054.03 L 342.15 1052.86 L 343.58 1051.72 L 345.04 1050.60 L 346.51 1049.50 L 348.01 1048.43 L 349.51 1047.37 L 351.03 1046.34 L 352.57 1045.34 L 354.14 1044.39 L 355.73 1043.47 L 357.33 1042.57 L 358.95 1041.69 L 360.58 1040.85 L 362.23 1040.05 L 363.91 1039.30 L 365.60 1038.58 L 367.30 1037.88 L 369.00 1037.18 L 370.70 1036.48 L 372.41 1035.82 L 374.14 1035.20 L 375.88 1034.64 L 377.64 1034.10 L 379.40 1033.58 L 381.17 1033.06 L 382.93 1032.56 L 384.71 1032.08 L 386.50 1031.66 L 388.29 1031.28 L 390.10 1030.93 L 391.90 1030.59 L 393.71 1030.26 L 395.52 1029.96 L 397.34 1029.68 L 399.16 1029.42 L 400.98 1029.20 L 402.81 1029.01 L 404.64 1028.85 L 406.47 1028.72 L 408.31 1028.62 L 410.14 1028.54 L 411.98 1028.48 L 413.81 1028.43 L 415.65 1028.39 L 417.49 1028.40 L 419.32 1028.45 L 421.16 1028.55 L 422.99 1028.67 L 424.82 1028.80 L 426.66 1028.93 L 428.49 1029.06 L 430.32 1029.22 L 432.15 1029.42 L 433.96 1029.67 L 435.78 1029.97 L 437.59 1030.29 L 439.39 1030.62 L 441.20 1030.95 L 443.00 1031.32 L 444.79 1031.73 L 446.56 1032.20 L 448.33 1032.72 L 450.09 1033.25 L 451.84 1033.79 L 453.59 1034.34 L 455.33 1034.94 L 457.05 1035.59 L 458.75 1036.28 L 460.43 1037.02 L 462.11 1037.76 L 463.79 1038.51 L 465.47 1039.26 L 467.15 1040.01 L 468.81 1040.79 L 470.45 1041.62 L 472.06 1042.49 L 473.66 1043.40 L 475.25 1044.33 L 476.83 1045.26 L 478.41 1046.19 L 480.00 1047.13 L 481.56 1048.09 L 483.10 1049.09 L 484.59 1050.16 L 486.04 1051.28 L 487.46 1052.44 L 488.88 1053.61 L 490.30 1054.79 L 491.71 1055.96 L 493.13 1057.13 L 494.53 1058.31 L 495.91 1059.53 L 497.24 1060.79 L 498.52 1062.10 L 499.77 1063.45 L 501.00 1064.82 L 502.22 1066.18 L 503.45 1067.55 L 504.68 1068.92 L 505.89 1070.30 L 507.07 1071.71 L 508.21 1073.15 L 509.33 1074.61 L 510.43 1076.07 L 511.53 1077.55 L 512.62 1079.03 L 513.70 1080.52 L 514.75 1082.02 L 515.79 1083.54 L 516.83 1085.05 L 517.87 1086.57 L 518.91 1088.08 L 519.95 1089.60 L 520.99 1091.12 L 522.03 1092.63 L 523.06 1094.15 L 524.10 1095.66 L 525.14 1097.18 L 526.17 1098.70 L 527.20 1100.23 L 528.21 1101.76 L 529.22 1103.29 L 530.23 1104.83 L 531.23 1106.37 L 532.24 1107.91 L 533.25 1109.44 L 534.26 1110.98 L 535.26 1112.52 L 536.27 1114.05 L 537.28 1115.59 L 538.28 1117.13 L 539.29 1118.67 L 540.30 1120.20 L 541.30 1121.74 L 542.31 1123.28 L 543.32 1124.82 L 544.33 1126.35 L 545.33 1127.89 L 546.34 1129.43 L 547.35 1130.96 L 548.35 1132.50 L 549.36 1134.04 L 550.37 1135.57 L 551.37 1137.11 L 552.38 1138.65 L 553.38 1140.19 L 554.38 1141.74 L 555.37 1143.28 L 556.36 1144.83 L 557.36 1146.38 L 558.35 1147.92 L 559.34 1149.47 L 560.33 1151.01 L 561.33 1152.56 L 562.32 1154.11 L 563.31 1155.65 L 564.31 1157.20 L 565.30 1158.75 L 566.29 1160.29 L 567.28 1161.84 L 568.28 1163.39 L 569.27 1164.93 L 570.26 1166.48 L 571.26 1168.02 L 572.25 1169.57 L 573.24 1171.12 L 574.23 1172.66 L 575.23 1174.21 L 576.22 1175.76 L 577.21 1177.30 L 578.21 1178.85 L 579.20 1180.40 L 580.19 1181.94 L 581.18 1183.49 L 582.18 1185.03 L 583.17 1186.58 L 584.16 1188.13 L 585.16 1189.67 L 586.15 1191.22 L 587.14 1192.77 L 588.13 1194.31 L 589.13 1195.86 L 590.12 1197.41 L 591.11 1198.95 L 592.10 1200.50 L 593.09 1202.05 L 594.07 1203.61 L 595.04 1205.16 L 596.01 1206.73 L 596.98 1208.29 L 597.95 1209.85 L 598.92 1211.41 L 599.89 1212.97 L 600.85 1214.53 L 601.82 1216.10 L 602.79 1217.66 L 603.76 1219.22 L 604.73 1220.78 L 605.70 1222.34 L 606.67 1223.90 L 607.64 1225.47 L 608.60 1227.03 L 609.57 1228.59 L 610.54 1230.15 L 611.51 1231.71 L 612.48 1233.27 L 613.45 1234.83 L 614.42 1236.40 L 615.38 1237.96 L 616.35 1239.52 L 617.31 1241.09 L 618.26 1242.66 L 619.20 1244.24 L 620.15 1245.82 L 621.08 1247.40 L 622.00 1248.99 L 622.92 1250.58 L 623.82 1252.18 L 624.72 1253.78 L 625.63 1255.38 L 626.53 1256.98 L 627.42 1258.59 L 628.29 1260.21 L 629.11 1261.85 L 629.88 1263.52 L 630.58 1265.21 L 631.22 1266.93 L 631.77 1268.68 L 632.23 1270.46 L 632.61 1272.25 L 632.90 1274.06 L 633.10 1275.89 L 633.20 1277.72 L 633.20 1279.55 L 633.09 1281.38 L 632.85 1283.19 L 632.48 1284.98 L 632.01 1286.76 L 631.45 1288.50 L 630.80 1290.22 L 630.06 1291.89 L 629.23 1293.53 L 628.31 1295.12 L 627.31 1296.65 L 626.23 1298.14 L 625.09 1299.57 L 623.87 1300.93 L 622.57 1302.23 L 621.21 1303.46 L 619.79 1304.63 L 618.34 1305.76 L 616.88 1306.87 L 615.40 1307.96 L 613.90 1309.01 L 612.35 1310.00 L 610.77 1310.92 L 609.15 1311.79 L 607.51 1312.63 L 605.87 1313.46 L 604.23 1314.28 L 602.59 1315.11 L 600.95 1315.93 L 599.30 1316.76 L 597.65 1317.56 L 595.99 1318.33 L 594.30 1319.05 L 592.59 1319.73 L 590.87 1320.38 L 589.15 1321.03 L 587.44 1321.69 L 585.72 1322.34 L 584.00 1322.99 L 582.28 1323.65 L 580.56 1324.30 L 578.84 1324.94 L 577.12 1325.57 L 575.39 1326.20 L 573.66 1326.82 L 571.93 1327.43 L 570.20 1328.05 L 568.47 1328.67 L 566.73 1329.28 L 565.00 1329.90 L 563.27 1330.51 L 561.54 1331.13 L 559.81 1331.75 L 558.08 1332.36 L 556.35 1332.98 L 554.62 1333.60 L 552.89 1334.21 L 551.15 1334.83 L 549.42 1335.45 L 547.69 1336.06 L 545.96 1336.68 L 544.23 1337.30 L 542.50 1337.91 L 540.77 1338.53 L 539.04 1339.15 L 537.30 1339.76 L 535.57 1340.38 L 533.84 1341.00 L 532.11 1341.61 L 530.38 1342.23 L 528.65 1342.85 L 526.92 1343.46 L 525.19 1344.08 L 523.46 1344.70 L 521.72 1345.31 L 519.99 1345.93 L 518.26 1346.55 L 516.53 1347.16 L 514.80 1347.78 L 513.07 1348.39 L 511.33 1349.00 L 509.59 1349.58 L 507.84 1350.13 L 506.08 1350.67 L 504.32 1351.20 L 502.55 1351.68 L 500.76 1352.10 L 498.96 1352.45 L 497.15 1352.73 L 495.33 1353.00 L 493.51 1353.26 L 491.69 1353.52 L 489.87 1353.76 L 488.05 1353.96 L 486.22 1354.09 L 484.38 1354.15 L 482.55 1354.17 L 480.71 1354.17 L 478.87 1354.15 L 477.03 1354.10 L 475.20 1354.03 L 473.36 1353.95 L 471.53 1353.85 L 469.70 1353.72 L 467.87 1353.53 L 466.06 1353.27 L 464.24 1352.97 L 462.43 1352.65 L 460.62 1352.33 L 458.81 1352.01 L 457.01 1351.69 L 455.20 1351.37 L 453.39 1351.05 L 451.58 1350.73 L 449.77 1350.41 L 447.96 1350.09 L 446.15 1349.77 L 444.34 1349.45 L 442.53 1349.13 L 440.72 1348.81 L 438.91 1348.49 L 437.10 1348.17 L 435.29 1347.86 L 433.48 1347.54 L 431.67 1347.22 L 429.86 1346.90 L 428.05 1346.58 L 426.24 1346.26 L 424.43 1345.94 L 422.62 1345.62 L 420.81 1345.30 L 419.00 1344.98 L 417.19 1344.66 L 415.38 1344.34 L 413.57 1344.02 L 411.77 1343.69 L 409.96 1343.35 L 408.16 1342.99 L 406.36 1342.63 L 404.56 1342.26 L 402.76 1341.89 L 400.96 1341.52 L 399.16 1341.15 L 397.36 1340.77 L 395.56 1340.40 L 393.76 1340.03 L 391.96 1339.66 L 390.16 1339.29 L 388.36 1338.91 L 386.56 1338.51 L 384.77 1338.10 L 382.99 1337.68 L 381.20 1337.24 L 379.42 1336.78 L 377.65 1336.30 L 375.87 1335.82 L 374.10 1335.34 L 372.33 1334.86 L 370.55 1334.38 L 368.78 1333.89 L 367.01 1333.39 L 365.25 1332.88 L 363.49 1332.34 L 361.74 1331.79 L 359.99 1331.24 L 358.23 1330.69 L 356.48 1330.14 L 354.73 1329.59 L 352.98 1329.02 L 351.24 1328.42 L 349.51 1327.80 L 347.79 1327.15 L 346.08 1326.50 L 344.36 1325.84 L 342.65 1325.17 L 340.94 1324.49 L 339.24 1323.79 L 337.55 1323.09 L 335.85 1322.37 L 334.16 1321.65 L 332.47 1320.94 L 330.78 1320.22 L 329.08 1319.51 L 327.39 1318.79 L 325.70 1318.07 L 324.01 1317.36 L 322.31 1316.64 L 320.62 1315.92 L 318.93 1315.21 L 317.24 1314.49 L 315.55 1313.78 L 313.85 1313.06 L 312.16 1312.34 L 310.47 1311.63 L 308.78 1310.91 L 307.08 1310.20 L 305.39 1309.48 L 303.70 1308.76 L 302.01 1308.05 L 300.32 1307.32 L 298.63 1306.59 L 296.95 1305.84 L 295.28 1305.08 L 293.61 1304.31 L 291.95 1303.53 L 290.28 1302.76 L 288.61 1301.99 L 286.94 1301.22 L 285.28 1300.44 L 283.61 1299.67 L 281.94 1298.90 L 280.28 1298.12 L 278.62 1297.34 L 276.96 1296.54 L 275.31 1295.74 L 273.66 1294.93 L 272.00 1294.12 L 270.35 1293.32 L 268.70 1292.51 L 267.05 1291.70 L 265.41 1290.88 L 263.78 1290.04 L 262.15 1289.19 L 260.52 1288.33 L 258.90 1287.46 L 257.29 1286.57 L 255.69 1285.67 L 254.10 1284.75 L 252.52 1283.82 L 250.94 1282.89 L 249.35 1281.95 L 247.77 1281.02 L 246.19 1280.09 L 244.60 1279.16 L 243.02 1278.23 L 241.44 1277.29 L 239.85 1276.35 L 238.27 1275.41 L 236.69 1274.48 L 235.11 1273.54 L 233.54 1272.59 L 231.99 1271.61 L 230.46 1270.59 L 228.95 1269.54 L 227.46 1268.47 L 225.97 1267.40 L 224.48 1266.32 L 222.99 1265.24 L 221.53 1264.13 L 220.09 1262.99 L 218.67 1261.82 L 217.26 1260.64 L 215.86 1259.45 L 214.47 1258.25 L 213.09 1257.03 L 211.73 1255.80 L 210.39 1254.55 L 209.06 1253.28 L 207.75 1251.99 L 206.44 1250.70 L 205.15 1249.39 L 203.85 1248.09 L 202.55 1246.79 L 201.26 1245.48 L 199.96 1244.18 L 198.67 1242.87 L 197.39 1241.56 L 196.13 1240.23 L 194.89 1238.87 L 193.68 1237.48 L 192.51 1236.07 L 191.35 1234.65 L 190.19 1233.21 L 189.05 1231.78 L 187.91 1230.33 L 186.80 1228.87 L 185.71 1227.39 L 184.63 1225.91 L 183.55 1224.42 L 182.49 1222.92 L 181.44 1221.41 L 180.42 1219.88 L 179.43 1218.33 L 178.45 1216.78 L 177.48 1215.22 L 176.51 1213.66 L 175.57 1212.08 L 174.66 1210.49 L 173.78 1208.87 L 172.93 1207.24 L 172.10 1205.60 L 171.28 1203.96 L 170.46 1202.31 L 169.65 1200.67 L 168.83 1199.02 L 168.01 1197.37 L 167.21 1195.72 L 166.42 1194.06 L 165.66 1192.39 L 164.94 1190.70 L 164.25 1189.00 L 163.57 1187.29 L 162.89 1185.58 L 162.22 1183.87 L 161.54 1182.16 L 160.88 1180.45 L 160.24 1178.73 L 159.61 1177.00 L 158.99 1175.27 L 158.37 1173.54 L 157.75 1171.81 L 157.14 1170.08 L 156.53 1168.34 L 155.95 1166.60 L 155.38 1164.85 L 154.83 1163.10 L 154.28 1161.35 L 153.73 1159.59 L 153.19 1157.84 L 152.65 1156.08 L 152.12 1154.32 L 151.60 1152.56 L 151.09 1150.79 L 150.59 1149.02 L 150.10 1147.26 L 149.60 1145.49 L 149.10 1143.72 L 148.60 1141.95 L 148.10 1140.18 L 147.60 1138.41 L 147.10 1136.64 L 146.60 1134.88 L 146.10 1133.11 L 145.60 1131.34 L 145.10 1129.57 L 144.61 1127.80 L 144.11 1126.03 L 143.61 1124.26 L 143.11 1122.50 L 142.61 1120.73 L 142.11 1118.96 L 141.61 1117.19 L 141.11 1115.42 L 140.62 1113.65 L 140.13 1111.88 L 139.66 1110.10 L 139.19 1108.33 L 138.74 1106.55 L 138.28 1104.77 L 137.82 1102.99 L 137.36 1101.21 L 136.91 1099.43 L 136.45 1097.65 L 135.99 1095.87 L 135.53 1094.09 L 135.08 1092.31 L 134.62 1090.53 L 134.16 1088.75 L 133.71 1086.97 L 133.25 1085.19 L 132.80 1083.41 L 132.34 1081.63 L 131.90 1079.84 L 131.45 1078.06 L 131.01 1076.28 L 130.56 1074.49 L 130.12 1072.71 L 129.67 1070.93 L 129.23 1069.14 L 128.79 1067.36 L 128.35 1065.57 L 127.92 1063.79 L 127.49 1062.00 L 127.06 1060.22 L 126.63 1058.43 L 126.20 1056.64 L 125.77 1054.85 L 125.35 1053.07 L 124.92 1051.28 L 124.49 1049.49 L 124.06 1047.71 L 123.63 1045.92 L 123.20 1044.13 L 122.77 1042.35 L 122.34 1040.56 L 121.91 1038.77 L 121.48 1036.99 L 121.05 1035.20 L 120.62 1033.41 L 120.19 1031.63 L 119.77 1029.84 L 119.34 1028.05 L 118.91 1026.27 L 118.48 1024.48 L 118.05 1022.69 L 117.62 1020.90 L 117.19 1019.12 L 116.76 1017.33 L 116.33 1015.54 L 115.90 1013.76 L 115.47 1011.97 L 115.04 1010.18 L 114.61 1008.40 L 114.18 1006.61 L 113.76 1004.82 L 113.33 1003.04 L 112.90 1001.25 L 112.47 999.46 L 112.04 997.68 L 111.61 995.89 L 111.18 994.10 L 110.75 992.32 L 110.32 990.53 L 109.89 988.74 L 109.46 986.95 L 109.03 985.17 L 108.60 983.38 L 108.18 981.59 L 107.75 979.81 L 107.32 978.02 L 106.89 976.23 L 106.46 974.45 L 106.03 972.66 L 105.60 970.87 L 105.17 969.09 L 104.74 967.30 L 104.31 965.51 L 103.88 963.73 L 103.45 961.94 L 103.02 960.15 L 102.60 958.37 L 102.17 956.58 L 101.74 954.79 L 101.31 953.00 L 100.88 951.22 L 100.45 949.43 L 100.02 947.64 L 99.59 945.86 L 99.16 944.07 L 98.73 942.28 L 98.25 940.55 L 97.56 939.04 L 96.51 937.90 L 95.11 937.12 L 93.68 936.38 L 92.52 935.37 L 91.79 933.94 L 91.31 932.24 L 90.94 930.44 L 90.57 928.64 L 90.21 926.84 L 89.87 925.03 L 89.55 923.22 L 89.24 921.41 L 88.93 919.60 L 88.63 917.79 L 88.33 915.98 L 88.02 914.16 L 87.72 912.35 L 87.43 910.54 L 87.16 908.72 L 86.91 906.90 L 86.67 905.08 L 86.44 903.25 L 86.21 901.43 L 85.98 899.61 L 85.74 897.79 L 85.51 895.96 L 85.28 894.14 L 85.05 892.32 L 84.82 890.49 L 84.58 888.67 L 84.35 886.85 L 84.12 885.02 L 83.89 883.20 L 83.66 881.38 L 83.42 879.56 L 83.18 877.73 L 82.93 875.91 L 82.63 874.10 L 82.30 872.29 L 81.94 870.49 L 81.58 868.69 L 81.21 866.89 L 80.85 865.09 L 80.50 863.29 L 80.17 861.48 L 79.88 859.66 L 79.60 857.85 L 79.33 856.03 L 79.06 854.21 L 78.79 852.39 L 78.52 850.58 L 78.26 848.76 L 78.01 846.94 L 77.78 845.11 L 77.59 843.29 L 77.41 841.46 L 77.25 839.63 L 77.08 837.80 L 76.91 835.97 L 76.75 834.14 L 76.58 832.31 L 76.44 830.48 L 76.30 828.64 L 76.18 826.81 L 76.06 824.98 L 75.95 823.14 L 75.83 821.31 L 75.72 819.47 L 75.60 817.64 L 75.49 815.80 L 75.38 813.97 L 75.29 812.14 L 75.21 810.30 L 75.13 808.46 L 75.06 806.63 L 75.00 804.79 L 74.95 802.95 L 74.92 801.12 L 74.92 799.28 L 74.92 797.44 L 74.94 795.60 L 74.96 793.77 L 75.00 791.93 L 75.04 790.09 L 75.10 788.26 L 75.16 786.42 L 75.22 784.58 L 75.28 782.75 L 75.33 780.91 L 75.39 779.07 L 75.46 777.24 L 75.54 775.40 L 75.64 773.56 L 75.75 771.73 L 75.86 769.90 L 75.97 768.06 L 76.09 766.23 L 76.20 764.39 L 76.32 762.56 L 76.46 760.73 L 76.63 758.90 L 76.83 757.07 L 77.06 755.25 L 77.30 753.43 L 77.54 751.61 L 77.78 749.78 L 78.02 747.96 L 78.25 746.14 L 78.50 744.32 L 78.75 742.50 L 79.02 740.68 L 79.30 738.86 L 79.59 737.05 L 79.89 735.24 L 80.19 733.42 L 80.50 731.61 L 80.83 729.80 L 81.18 728.00 L 81.55 726.20 L 81.92 724.40 L 82.30 722.60 L 82.70 720.81 L 83.10 719.02 L 83.51 717.22 L 83.92 715.43 L 84.34 713.64 L 84.75 711.85 L 85.18 710.07 L 85.61 708.28 L 86.04 706.49 L 86.48 704.71 L 86.92 702.92 L 87.35 701.14 L 87.79 699.35 L 88.23 697.57 L 88.67 695.78 L 89.10 694.00 L 89.54 692.21 L 89.98 690.43 L 90.42 688.65 L 90.85 686.86 L 91.29 685.08 L 91.73 683.29 L 92.17 681.51 L 92.61 679.72 L 93.04 677.94 L 93.48 676.15 L 93.92 674.37 L 94.36 672.58 L 94.79 670.80 L 95.23 669.01 L 95.67 667.23 L 96.11 665.44 L 96.54 663.66 L 96.98 661.87 L 97.42 660.09 L 97.86 658.30 L 98.30 656.52 L 98.73 654.73 L 99.17 652.95 L 99.61 651.16 L 100.05 649.38 L 100.48 647.59 L 100.92 645.81 L 101.36 644.03 L 101.80 642.24 L 102.23 640.46 L 102.67 638.67 L 103.11 636.89 L 103.55 635.10 L 103.98 633.32 L 104.42 631.53 L 104.86 629.75 L 105.30 627.96 L 105.74 626.18 L 106.17 624.39 L 106.61 622.61 L 107.05 620.82 L 107.49 619.04 L 107.92 617.25 L 108.36 615.47 L 108.80 613.68 L 109.24 611.90 L 109.68 610.11 L 110.11 608.33 L 110.55 606.54 L 110.99 604.76 L 111.43 602.97 L 111.86 601.19 L 112.30 599.41 L 112.74 597.62 L 113.19 595.84 L 113.64 594.06 L 114.09 592.28 L 114.55 590.50 L 115.00 588.72 L 115.46 586.94 L 115.91 585.15 L 116.37 583.37 L 116.83 581.59 L 117.28 579.81 L 117.74 578.03 L 118.19 576.25 L 118.65 574.47 L 119.11 572.69 L 119.56 570.91 L 120.02 569.13 L 120.47 567.35 L 120.93 565.57 L 121.38 563.79 L 121.84 562.01 L 122.30 560.23 L 122.75 558.45 L 123.21 556.67 L 123.66 554.89 L 124.12 553.11 L 124.58 551.33 L 125.03 549.55 L 125.49 547.77 L 125.94 545.99 L 126.40 544.21 L 126.86 542.43 L 127.31 540.65 L 127.77 538.87 L 128.22 537.09 L 128.68 535.31 L 129.14 533.53 L 129.59 531.75 L 130.05 529.97 L 130.50 528.19 L 130.96 526.41 L 131.41 524.63 L 131.87 522.85 L 132.33 521.07 L 132.78 519.29 L 133.24 517.51 L 133.69 515.73 L 134.15 513.95 L 134.61 512.17 L 135.06 510.39 L 135.52 508.61 L 135.97 506.82 L 136.43 505.04 L 136.89 503.26 L 137.34 501.48 L 137.80 499.70 L 138.25 497.92 L 138.71 496.14 L 139.17 494.36 L 139.62 492.58 L 140.08 490.80 L 140.53 489.02 L 140.99 487.24 L 141.44 485.46 L 141.90 483.68 L 142.36 481.90 L 142.81 480.12 L 143.27 478.34 L 143.72 476.56 L 144.18 474.78 L 144.64 473.00 L 145.09 471.22 L 145.55 469.44 L 146.00 467.66 L 146.46 465.88 L 146.92 464.10 L 147.37 462.32 L 147.83 460.54 L 148.28 458.76 L 148.74 456.98 L 149.20 455.20 L 149.65 453.42 L 150.11 451.64 L 150.56 449.86 L 151.02 448.08 L 151.47 446.30 L 151.93 444.52 L 152.39 442.74 L 152.84 440.96 L 153.30 439.18 L 153.75 437.40 L 154.21 435.62 L 154.67 433.84 L 155.12 432.06 L 155.58 430.28 L 156.03 428.49 L 156.49 426.71 L 156.95 424.93 L 157.40 423.15 L 157.86 421.37 L 158.31 419.59 L 158.77 417.81 L 159.22 416.03 L 159.68 414.25 L 160.14 412.47 L 160.59 410.69 L 161.05 408.91 L 161.50 407.13 L 161.96 405.35 L 162.42 403.57 Z" fill="none" stroke="#94a3b8" stroke-width="1.2" opacity="0.54"/>
<path d="M 130.68 592.33 L 149.97 514.28 L 181.47 394.51 L 246.33 135.10 L 264.52 139.41 L 180.68 471.73 L 169.53 468.80 L 156.63 517.92 L 137.82 594.09 L 130.68 592.33 Z" fill="#facc15" fill-opacity="0.06" stroke="#facc15" stroke-width="0.8" opacity="0.42"/>
<path d="M 251.89 1192.73 L 251.29 1190.36 L 250.70 1187.99 L 250.10 1185.61 L 249.51 1183.24 L 248.91 1180.87 L 248.31 1178.50 L 247.72 1176.12 L 247.12 1173.75 L 246.53 1171.38 L 245.93 1169.01 L 245.34 1166.64 L 244.74 1164.26 L 244.15 1161.89 L 243.55 1159.52 L 242.96 1157.15 L 242.36 1154.78 L 241.77 1152.40 L 241.17 1150.03 L 240.58 1147.66 L 239.98 1145.29 L 239.39 1142.92 L 238.79 1140.54 L 238.19 1138.17 L 237.60 1135.80 L 237.00 1133.43 L 236.41 1131.06 L 235.81 1128.68 L 235.22 1126.31 L 234.62 1123.94 L 234.03 1121.57 L 233.43 1119.20 L 232.84 1116.82 L 232.24 1114.45 L 231.65 1112.08 L 231.05 1109.71 L 230.46 1107.33 L 229.86 1104.96 L 229.26 1102.59 L 228.67 1100.22 L 228.07 1097.85 L 227.48 1095.47 L 226.88 1093.10 L 226.29 1090.73 L 225.69 1088.36 L 225.10 1085.99 L 224.50 1083.61 L 223.91 1081.24 L 223.31 1078.87 L 222.72 1076.50 L 222.12 1074.13 L 221.52 1071.75 L 220.93 1069.38 L 220.33 1067.01 L 219.74 1064.64 L 219.14 1062.27 L 218.55 1059.89 L 217.95 1057.52 L 217.36 1055.15 L 216.76 1052.78 L 216.16 1050.41 L 215.57 1048.03 L 214.97 1045.66 L 214.38 1043.29 L 213.78 1040.92 L 213.19 1038.55 L 212.59 1036.17 L 212.00 1033.80 L 211.40 1031.43 L 210.80 1029.06 L 210.21 1026.69 L 209.61 1024.31 L 209.02 1021.94 L 208.42 1019.57 L 207.83 1017.20 L 207.23 1014.83 L 206.63 1012.45 L 206.04 1010.08 L 205.44 1007.71 L 204.85 1005.34 L 204.25 1002.97 L 203.65 1000.59 L 203.06 998.22 L 202.46 995.85 L 201.87 993.48 L 201.27 991.11 L 200.67 988.74 L 200.08 986.36 L 199.48 983.99 L 198.88 981.62 L 198.29 979.25 L 197.69 976.88 L 197.10 974.50 L 196.50 972.13 L 195.90 969.76 L 195.31 967.39 L 194.71 965.02 L 194.11 962.65 L 193.51 960.27 L 192.92 957.90 L 192.32 955.53 L 191.72 953.16 L 191.12 950.79 L 190.52 948.42 L 189.93 946.05 L 189.33 943.68 L 188.72 941.30 L 188.12 938.94 L 187.51 936.57 L 186.90 934.20 L 186.29 931.83 L 185.68 929.46 L 185.07 927.09 L 184.46 924.73 L 183.85 922.36 L 183.23 919.99 L 182.62 917.62 L 182.01 915.25 L 181.40 912.89 L 180.79 910.52 L 180.18 908.15 L 179.56 905.78 L 178.95 903.42 L 178.34 901.05 L 177.73 898.68 L 177.12 896.31 L 176.50 893.94 L 175.89 891.58 L 175.28 889.21 L 174.67 886.84 L 174.06 884.47 L 173.45 882.11 L 172.83 879.74 L 172.23 877.37 L 171.62 875.00 L 165.42 874.07 L 164.79 871.71 L 164.17 869.34 L 163.54 866.98 L 162.92 864.61 L 162.30 862.25 L 161.67 859.88 L 161.05 857.52 L 160.42 855.15 L 159.80 852.79 L 159.18 850.43 L 158.56 848.06 L 157.93 845.69 L 157.31 843.33 L 156.69 840.96 L 156.07 838.60 L 155.45 836.23 L 154.84 833.87 L 154.22 831.50 L 153.61 829.13 L 153.01 826.76 L 152.41 824.39 L 151.82 822.02 L 151.23 819.64 L 150.64 817.27 L 150.05 814.89 L 149.46 812.52 L 148.88 810.15 L 148.29 807.77 L 147.70 805.40 L 147.12 803.02 L 146.53 800.65 L 145.95 798.27 L 145.36 795.90 L 144.77 793.53 L 144.19 791.15 L 143.60 788.78 L 143.02 786.40 L 142.43 784.03 L 141.85 781.65 L 141.26 779.28 L 140.68 776.90 L 140.09 774.53 L 139.51 772.15 L 138.92 769.78 L 138.34 767.40 L 137.75 765.03" fill="none" stroke="#ef4444" stroke-width="2.4" opacity="0.24"/>
<path d="M 134.53 592.06 L 134.98 590.27 L 135.42 588.47 L 135.87 586.65 L 136.32 584.84 L 136.76 583.05 L 137.21 581.25 L 137.65 579.45 L 138.10 577.64 L 138.55 575.82 L 138.99 574.04 L 139.43 572.25 L 139.87 570.45 L 140.32 568.65 L 140.77 566.84 L 141.21 565.03 L 141.66 563.22 L 142.11 561.40 L 142.55 559.61 L 143.00 557.82 L 143.44 556.03 L 143.88 554.23 L 144.33 552.43 L 144.77 550.63 L 145.22 548.83 L 145.66 547.02 L 146.11 545.21 L 146.56 543.41 L 147.00 541.60 L 147.45 539.79 L 147.90 537.97 L 148.35 536.16 L 148.79 534.35 L 149.24 532.54 L 149.69 530.73 L 150.14 528.92 L 150.58 527.11 L 151.03 525.30 L 151.48 523.49 L 151.92 521.68 L 152.37 519.88 L 152.81 518.08 L 153.26 516.28 L 153.72 514.49 L 154.19 512.71 L 154.66 510.93 L 155.14 509.12 L 155.61 507.31 L 156.08 505.51 L 156.56 503.71 L 157.03 501.91 L 157.50 500.12 L 157.97 498.32 L 158.44 496.53 L 158.92 494.74 L 159.39 492.94 L 159.86 491.15 L 160.33 489.36 L 160.80 487.56 L 161.27 485.77 L 161.74 483.97 L 162.22 482.17 L 162.69 480.37 L 163.16 478.57 L 163.64 476.76 L 164.11 474.95 L 164.58 473.17 L 165.05 471.39 L 165.52 469.60 L 171.58 469.24 L 172.04 467.44 L 172.51 465.63 L 172.97 463.82 L 173.43 462.03 L 173.89 460.24 L 174.36 458.45 L 174.82 456.64 L 175.29 454.83 L 175.75 453.05 L 176.21 451.27 L 176.67 449.47 L 177.13 447.67 L 177.60 445.86 L 178.07 444.04 L 178.53 442.26 L 178.99 440.47 L 179.45 438.68 L 179.91 436.88 L 180.38 435.08 L 180.84 433.27 L 181.31 431.45 L 181.77 429.67 L 182.23 427.88 L 182.69 426.09 L 183.15 424.30 L 183.62 422.50 L 184.08 420.69 L 184.55 418.88 L 185.02 417.07 L 185.49 415.25 L 185.94 413.46 L 186.40 411.68 L 186.87 409.89 L 187.33 408.09 L 187.79 406.29 L 188.26 404.48 L 188.72 402.68 L 189.19 400.86 L 189.66 399.04 L 190.13 397.22 L 190.58 395.44 L 191.03 393.65 L 191.48 391.86 L 191.93 390.06 L 192.38 388.26 L 192.84 386.46 L 193.29 384.65 L 193.74 382.84 L 194.20 381.02 L 194.66 379.21 L 195.11 377.39 L 195.57 375.56 L 196.02 373.78 L 196.47 371.99 L 196.92 370.20 L 197.37 368.40 L 197.82 366.61 L 198.27 364.80 L 198.73 363.00 L 199.18 361.19 L 199.63 359.39 L 200.09 357.58 L 200.54 355.76 L 201.00 353.95 L 201.46 352.13 L 201.91 350.31 L 202.37 348.49 L 202.82 346.70 L 203.27 344.92 L 203.72 343.13 L 204.17 341.34 L 204.62 339.54 L 205.07 337.74 L 205.52 335.94 L 205.98 334.14 L 206.43 332.33 L 206.88 330.52 L 207.34 328.71 L 207.79 326.90 L 208.25 325.08 L 208.71 323.26 L 209.16 321.44 L 209.62 319.62 L 210.08 317.79 L 210.53 316.01 L 210.98 314.22 L 211.43 312.43 L 211.88 310.64 L 212.33 308.84 L 212.78 307.05 L 213.23 305.25 L 213.68 303.45 L 214.14 301.65 L 214.59 299.85 L 215.04 298.05 L 215.49 296.24 L 215.95 294.43 L 216.40 292.62 L 216.86 290.81 L 217.31 288.99 L 217.77 287.17 L 218.23 285.35 L 218.69 283.53 L 219.14 281.71 L 219.60 279.88 L 220.06 278.05 L 220.52 276.22 L 220.98 274.39 L 221.43 272.60 L 221.88 270.81 L 222.33 269.03 L 222.78 267.24 L 223.23 265.45 L 223.68 263.66 L 224.13 261.87 L 224.58 260.07 L 225.03 258.28 L 225.48 256.48 L 225.93 254.69 L 226.38 252.89 L 226.84 251.09 L 227.29 249.29 L 227.74 247.48 L 228.19 245.68 L 228.65 243.87 L 229.10 242.07 L 229.55 240.26 L 230.01 238.45 L 230.46 236.64 L 230.92 234.83 L 231.37 233.01 L 231.83 231.20 L 232.29 229.38 L 232.74 227.57 L 233.20 225.75 L 233.66 223.93 L 234.11 222.11 L 234.57 220.29 L 235.03 218.47 L 235.49 216.64 L 235.94 214.82 L 236.40 212.99 L 236.86 211.17 L 237.32 209.34 L 237.78 207.51 L 238.23 205.73 L 238.67 203.95 L 239.12 202.17 L 239.57 200.39 L 240.02 198.60 L 240.46 196.82 L 240.91 195.03 L 241.36 193.25 L 241.81 191.46 L 242.26 189.67 L 242.71 187.88 L 243.16 186.09 L 243.62 184.26 L 244.07 182.45 L 244.52 180.66 L 244.98 178.84 L 245.43 177.05 L 245.89 175.23 L 246.34 173.42 L 246.80 171.60 L 247.25 169.79 L 247.70 168.01 L 248.15 166.21 L 248.60 164.43 L 249.05 162.62 L 249.50 160.84 L 249.95 159.04 L 250.41 157.23 L 250.86 155.45 L 251.30 153.66 L 251.75 151.88 L 252.20 150.08 L 252.66 148.27 L 253.11 146.47 L 253.56 144.69 L 254.01 142.91 L 254.45 141.15 L 254.88 139.42 L 255.61 137.75" fill="none" stroke="#fde047" stroke-width="4.6" opacity="0.98"/>
<circle cx="198.27" cy="364.80" r="4.7" fill="#fde047" stroke="#050816" stroke-width="1.5"/><text x="208.27" y="356.80" fill="#fde047" font-size="12" font-family="Consolas, monospace" paint-order="stroke" stroke="#050816" stroke-width="3" stroke-linejoin="round">PitLane V2</text>
<circle cx="134.53" cy="592.06" r="4.7" fill="#22c55e" stroke="#050816" stroke-width="1.5"/><text x="144.53" y="584.06" fill="#22c55e" font-size="12" font-family="Consolas, monospace" paint-order="stroke" stroke="#050816" stroke-width="3" stroke-linejoin="round">Entry V2</text>
<circle cx="255.61" cy="137.75" r="4.7" fill="#fb923c" stroke="#050816" stroke-width="1.5"/><text x="265.61" y="129.75" fill="#fb923c" font-size="12" font-family="Consolas, monospace" paint-order="stroke" stroke="#050816" stroke-width="3" stroke-linejoin="round">Exit V2</text>
<circle cx="197.69" cy="976.88" r="4.7" fill="#ef4444" stroke="#050816" stroke-width="1.5"/><text x="207.69" y="992.88" fill="#ef4444" font-size="12" font-family="Consolas, monospace" paint-order="stroke" stroke="#050816" stroke-width="3" stroke-linejoin="round">Legacy</text>
<text x="24" y="34" fill="#e2e8f0" font-size="15" font-family="Consolas, monospace">PitLane V2 Exit Zoom</text>
<text x="24" y="56" fill="#94a3b8" font-size="11" font-family="Consolas, monospace">debug-only; V2 yellow, legacy weak red; runtime unchanged</text>
</svg>