<svg xmlns="http://www.w3.org/2000/svg" width="1200" height="820" viewBox="0 0 1200 820">
<rect width="100%" height="100%" fill="#060911"/>
<text x="30" y="34" fill="#d9e6f2" font-family="Segoe UI, Arial" font-size="18">Screen-space mirror validation</text>
<text x="30" y="58" fill="#94a3b8" font-family="Segoe UI, Arial" font-size="13">Rule: screenX = width - screenX; screenY unchanged. Solid = original, ring = mirrored.</text>
<line x1="600" y1="80" x2="600" y2="790" stroke="#334155" stroke-dasharray="8 8"/>
<circle cx="140.00" cy="120.00" r="8" fill="#f97316"/><text x="152.00" y="110.00" fill="#f97316" font-size="13" font-family="Segoe UI, Arial">top_left_marker original</text>
<circle cx="1060.00" cy="120.00" r="12" fill="none" stroke="#f97316" stroke-width="3"/>
<line x1="140.00" y1="120.00" x2="1060.00" y2="120.00" stroke="#f97316" stroke-width="1" stroke-dasharray="5 5" opacity="0.65"/>
<text x="1074.00" y="138.00" fill="#f97316" font-size="12" font-family="Segoe UI, Arial">Y=120.00</text>
<circle cx="1010.00" cy="120.00" r="8" fill="#22d3ee"/><text x="1022.00" y="110.00" fill="#22d3ee" font-size="13" font-family="Segoe UI, Arial">top_right_marker original</text>
<circle cx="190.00" cy="120.00" r="12" fill="none" stroke="#22d3ee" stroke-width="3"/>
<line x1="1010.00" y1="120.00" x2="190.00" y2="120.00" stroke="#22d3ee" stroke-width="1" stroke-dasharray="5 5" opacity="0.65"/>
<text x="204.00" y="138.00" fill="#22d3ee" font-size="12" font-family="Segoe UI, Arial">Y=120.00</text>
<circle cx="140.00" cy="690.00" r="8" fill="#a78bfa"/><text x="152.00" y="680.00" fill="#a78bfa" font-size="13" font-family="Segoe UI, Arial">bottom_left_marker original</text>
<circle cx="1060.00" cy="690.00" r="12" fill="none" stroke="#a78bfa" stroke-width="3"/>
<line x1="140.00" y1="690.00" x2="1060.00" y2="690.00" stroke="#a78bfa" stroke-width="1" stroke-dasharray="5 5" opacity="0.65"/>
<text x="1074.00" y="708.00" fill="#a78bfa" font-size="12" font-family="Segoe UI, Arial">Y=690.00</text>
<circle cx="1010.00" cy="690.00" r="8" fill="#34d399"/><text x="1022.00" y="680.00" fill="#34d399" font-size="13" font-family="Segoe UI, Arial">bottom_right_marker original</text>
<circle cx="190.00" cy="690.00" r="12" fill="none" stroke="#34d399" stroke-width="3"/>
<line x1="1010.00" y1="690.00" x2="190.00" y2="690.00" stroke="#34d399" stroke-width="1" stroke-dasharray="5 5" opacity="0.65"/>
<text x="204.00" y="708.00" fill="#34d399" font-size="12" font-family="Segoe UI, Arial">Y=690.00</text>
<circle cx="368.75" cy="361.68" r="8" fill="#facc15"/><text x="380.75" y="351.68" fill="#facc15" font-size="13" font-family="Segoe UI, Arial">track_sample_2675 original</text>
<circle cx="831.25" cy="361.68" r="12" fill="none" stroke="#facc15" stroke-width="3"/>
<line x1="368.75" y1="361.68" x2="831.25" y2="361.68" stroke="#facc15" stroke-width="1" stroke-dasharray="5 5" opacity="0.65"/>
<text x="845.25" y="379.68" fill="#facc15" font-size="12" font-family="Segoe UI, Arial">Y=361.68</text>
<text x="30" y="790" fill="#34d399" font-family="Segoe UI, Arial" font-size="15">PASS: all mirrored markers keep the same Y; only X changes.</text>
</svg>